<svg width="20" height="20" viewBox="0 0 20 20" fill="none" xmlns="http://www.w3.org/2000/svg">
<path fill-rule="evenodd" clip-rule="evenodd" d="M16.685 17.097C17.654 16.1865 18.426 15.0869 18.9532 13.8662C19.4803 12.6455 19.7515 11.3297 19.75 10C19.75 4.615 15.385 0.25 10 0.25C4.61501 0.25 0.250007 4.615 0.250007 10C0.248468 11.3297 0.519673 12.6455 1.04686 13.8662C1.57404 15.0869 2.346 16.1865 3.31501 17.097C5.12194 18.8039 7.51435 19.7533 10 19.75C12.4857 19.7533 14.8781 18.8039 16.685 17.097ZM4.14501 15.812C4.84708 14.9336 5.73802 14.2247 6.75164 13.7379C7.76527 13.2511 8.87554 12.9989 10 13C11.1245 12.9989 12.2347 13.2511 13.2484 13.7379C14.262 14.2247 15.1529 14.9336 15.855 15.812C15.089 16.5857 14.1771 17.1996 13.172 17.6181C12.1669 18.0366 11.0887 18.2514 10 18.25C8.91128 18.2514 7.83311 18.0366 6.82803 17.6181C5.82296 17.1996 4.91098 16.5857 4.14501 15.812V15.812ZM13.75 7C13.75 7.99456 13.3549 8.94839 12.6517 9.65165C11.9484 10.3549 10.9946 10.75 10 10.75C9.00544 10.75 8.05162 10.3549 7.34836 9.65165C6.64509 8.94839 6.25001 7.99456 6.25001 7C6.25001 6.00544 6.64509 5.05161 7.34836 4.34835C8.05162 3.64509 9.00544 3.25 10 3.25C10.9946 3.25 11.9484 3.64509 12.6517 4.34835C13.3549 5.05161 13.75 6.00544 13.75 7V7Z" fill="#3F3F3F"/>
</svg>
